<?xml version="1.0" encoding="iso-8859-1"?><!DOCTYPE svg PUBLIC "-//W3C//DTD SVG 1.1//EN" "http://www.w3.org/Graphics/SVG/1.1/DTD/svg11.dtd"><svg width="272" height="238" viewBox="0 0 272 238" xmlns="http://www.w3.org/2000/svg" xmlns:xlink="http://www.w3.org/1999/xlink"><svg width="34" height="34" viewBox="0 0 34 34" id="add" x="34"><circle cx="17" cy="17.213" r="8.5" fill="#7AC943"/><path fill="#fff" d="M18.062 21.463v-3.188h3.188V16.15h-3.188v-3.188h-2.124v3.188H12.75v2.125h3.188v3.188z"/></svg><svg width="34" height="34" viewBox="0 0 34 34" id="add-disabled" x="170" y="34"><circle cx="17" cy="17" r="8.5" fill="#B1B1B1"/><path fill="#fff" d="M18.062 21.25v-3.188h3.188v-2.124h-3.188V12.75h-2.124v3.188H12.75v2.124h3.188v3.188z"/></svg><svg width="34" height="34" viewBox="0 0 34 34" id="add_hover" y="34"><circle cx="17" cy="17" r="8.5" fill="#EB6D1C"/><path fill="#fff" d="M18.062 21.25v-3.188h3.188v-2.124h-3.188V12.75h-2.124v3.188H12.75v2.124h3.188v3.188z"/></svg><svg width="34" height="34" viewBox="0 0 34 34" id="checkbox-checked" x="34" y="34"><path d="M21.25 19.763c0 .85-.638 1.487-1.487 1.487h-5.525c-.85 0-1.487-.638-1.487-1.487v-5.525c0-.85.64-1.487 1.488-1.487h5.525c.85 0 1.487.64 1.487 1.488v5.525z" fill="#fff" stroke="#666"/><path fill="none" stroke="#666" d="M14.237 15.725l2.657 3.825 4.143-7.65"/></svg><svg width="34" height="34" viewBox="0 0 34 34" id="checkbox-disabled-checked" x="68"><path d="M21.25 19.763c0 .85-.638 1.487-1.487 1.487h-5.525c-.85 0-1.487-.638-1.487-1.487v-5.525c0-.85.64-1.487 1.488-1.487h5.525c.85 0 1.487.64 1.487 1.488v5.525z" fill="none" stroke="#E6E6E6"/><path fill="none" stroke="#E6E6E6" d="M14.237 15.725l2.657 3.825 4.143-7.65"/></svg><svg width="34" height="34" viewBox="0 0 34 34" id="checkbox-disabled-unchecked" x="68" y="34"><path d="M21.25 19.763c0 .85-.638 1.487-1.487 1.487h-5.525c-.85 0-1.487-.638-1.487-1.487v-5.525c0-.85.64-1.487 1.488-1.487h5.525c.85 0 1.487.64 1.487 1.488v5.525z" fill="#fff" stroke="#E6E6E6"/></svg><svg width="34" height="34" viewBox="0 0 34 34" id="checkbox-unchecked" y="68"><path d="M21.25 19.763c0 .85-.638 1.487-1.487 1.487h-5.525c-.85 0-1.487-.638-1.487-1.487v-5.525c0-.85.64-1.487 1.488-1.487h5.525c.85 0 1.487.64 1.487 1.488v5.525z" fill="#fff" stroke="#666"/></svg><svg width="34" height="34" viewBox="0 0 34 34" id="config" x="34" y="68"><circle cx="17" cy="17" r="8.5" fill="#B1B1B1"/><circle cx="17" cy="17" r="4.25" fill="#fff"/><path fill="#fff" d="M15.938 10.625h2.125v12.75h-2.125zM13.246 22.26l-1.504-1.503 9.01-9.02 1.506 1.502zM10.625 15.938h12.75v2.125h-12.75zM11.74 13.247l1.502-1.504 9.02 9.013-1.504 1.504z"/><circle cx="17" cy="17" r="2.125" fill="#B1B1B1"/></svg><svg width="34" height="34" viewBox="0 0 34 34" id="config-disabled" x="68" y="68"><circle cx="17" cy="17" r="8.5" fill="#E6E6E6"/><circle cx="17" cy="17" r="4.25" fill="#fff"/><path fill="#fff" d="M15.938 10.625h2.125v12.75h-2.125zM13.246 22.26l-1.504-1.503 9.01-9.02 1.506 1.502zM10.625 15.938h12.75v2.125h-12.75zM11.74 13.247l1.502-1.504 9.02 9.013-1.504 1.504z"/><circle cx="17" cy="17" r="2.125" fill="#E6E6E6"/></svg><svg width="34" height="34" viewBox="0 0 34 34" id="config_hover" x="102"><circle cx="17" cy="17" r="8.5" fill="#ED6D1C"/><circle cx="17" cy="17" r="4.25" fill="#fff"/><path fill="#fff" d="M15.938 10.625h2.125v12.75h-2.125zM13.246 22.26l-1.504-1.503 9.01-9.02 1.506 1.502zM10.625 15.938h12.75v2.125h-12.75zM11.74 13.247l1.502-1.504 9.02 9.013-1.504 1.504z"/><circle cx="17" cy="17" r="2.125" fill="#ED6D1C"/></svg><svg width="34" height="34" viewBox="0 0 34 34" id="dismiss" x="102" y="34"><circle cx="17" cy="17.213" r="8.5" fill="none"/><path fill="#4D4D4D" d="M20.72 19.443l-2.233-2.23 2.232-2.232-1.49-1.486-2.23 2.23-2.23-2.23-1.49 1.487 2.233 2.232-2.232 2.23 1.49 1.49L17 18.7l2.23 2.232z"/></svg><svg width="34" height="34" viewBox="0 0 34 34" id="dismiss-disabled" x="102" y="68"><circle cx="17" cy="17.213" r="8.5" fill="none"/><path fill="#E6E6E6" d="M20.72 19.443l-2.233-2.23 2.232-2.232-1.49-1.486-2.23 2.23-2.23-2.23-1.49 1.487 2.233 2.232-2.232 2.23 1.49 1.49L17 18.7l2.23 2.232z"/></svg><svg width="34" height="34" viewBox="0 0 34 34" id="dismiss_hover" y="102"><circle cx="17" cy="17.213" r="8.5" fill="none"/><path fill="#fff" d="M20.72 19.443l-2.233-2.23 2.232-2.232-1.49-1.486-2.23 2.23-2.23-2.23-1.49 1.487 2.233 2.232-2.232 2.23 1.49 1.49L17 18.7l2.23 2.232z"/></svg><svg width="34" height="34" viewBox="0.5 0.5 34 34" enable-background="new 0.5 0.5 34 34" id="drag" x="34" y="102"/><svg width="34" height="34" viewBox="0.5 0.5 34 34" enable-background="new 0.5 0.5 34 34" id="drag-disabled" x="68" y="102"/><svg width="34" height="34" viewBox="0 0 34 34" id="drag_hover" x="102" y="102"><path fill="#666" d="M13.812 9.562h2.125v2.125h-2.125zM13.812 13.812h2.125v2.125h-2.125zM18.062 9.562h2.125v2.125h-2.125zM18.062 13.812h2.125v2.125h-2.125zM13.812 18.062h2.125v2.125h-2.125zM13.812 22.312h2.125v2.125h-2.125zM18.062 18.062h2.125v2.125h-2.125zM18.062 22.312h2.125v2.125h-2.125z"/></svg><svg width="34" height="34" viewBox="0 0 34 34" id="edit" x="136"><path d="M8.5 17c0 4.675 3.825 8.5 8.5 8.5s8.5-3.825 8.5-8.5-3.825-8.5-8.5-8.5-8.5 3.825-8.5 8.5z" fill="#EB6D1C"/><path fill="#fff" d="M13.388 19.87l-.532.742v2.55l2.338-.743.637-.852z"/><g fill="#fff"><path d="M19.202 11.842l.562-.774 2.41 1.748-.563.773zM21.126 14.278l-4.747 6.534-2.408-1.75 4.747-6.533z"/></g></svg><svg width="34" height="34" viewBox="0 0 34 34" id="edit-disabled" x="136" y="34"><path d="M8.5 17c0 4.675 3.825 8.5 8.5 8.5s8.5-3.825 8.5-8.5-3.825-8.5-8.5-8.5-8.5 3.825-8.5 8.5z" fill="#B3B3B3"/><path fill="#fff" d="M13.388 19.87l-.532.742v2.55l2.338-.743.637-.852z"/><g fill="#fff"><path d="M19.202 11.842l.562-.774 2.41 1.748-.563.773zM21.126 14.278l-4.747 6.534-2.408-1.75 4.747-6.533z"/></g></svg><svg width="34" height="34" viewBox="0 0 34 34" id="edit-forbidden" x="136" y="68"><path d="M8.5 17c0 4.675 3.825 8.5 8.5 8.5s8.5-3.825 8.5-8.5-3.825-8.5-8.5-8.5-8.5 3.825-8.5 8.5z" fill="#1A1A1A"/><path fill="#fff" d="M13.388 19.87l-.532.742v2.55l2.338-.743.637-.852z"/><g fill="#fff"><path d="M19.202 11.842l.562-.774 2.41 1.748-.563.773zM21.126 14.278l-4.747 6.534-2.408-1.75 4.747-6.533z"/></g></svg><svg width="34" height="34" viewBox="0 0 34 34" id="favorite" x="136" y="102"><circle cx="17" cy="17" r="8.5" fill="#B1B1B1"/><path fill="#fff" d="M17 11.475l1.807 3.612 4.037.638-2.87 2.762.638 4.038L17 20.612l-3.612 1.913.637-4.038-2.87-2.762 4.04-.638z"/></svg><svg width="34" height="34" viewBox="0 0 34 34" id="favorite-disabled" y="136"><circle cx="17" cy="17" r="8.5" fill="#E6E6E6"/><path fill="#fff" d="M17 11.475l1.807 3.612 4.037.638-2.87 2.762.638 4.038L17 20.612l-3.612 1.913.637-4.038-2.87-2.762 4.04-.638z"/></svg><svg width="34" height="34" viewBox="0 0 34 34" id="favorite_hover" x="34" y="136"><circle cx="17" cy="17" r="8.5" fill="#ED6D1C"/><path fill="#fff" d="M17 11.475l1.807 3.612 4.037.638-2.87 2.762.638 4.038L17 20.612l-3.612 1.913.637-4.038-2.87-2.762 4.04-.638z"/></svg><svg width="34" height="34" viewBox="0 0 34 34" id="help" x="68" y="136"><circle cx="17" cy="17" r="8.5" fill="#B3B3B3"/><path d="M13.494 13.28c.212-.53.425-.955.744-1.274.32-.32.744-.638 1.275-.85s1.062-.32 1.594-.32 1.062.107 1.487.213c.425.105.85.424 1.17.637.317.32.53.638.742 1.062.213.424.32.85.32 1.486 0 .32 0 .638-.107.957s-.214.53-.32.744c-.105.212-.318.425-.425.638-.212.212-.318.425-.53.53l-.532.532-.53.53-.32.64c-.105.21-.105.53-.105.742v.637H16.47v-.85c0-.426.107-.85.32-1.17.106-.318.32-.637.53-.85s.426-.53.745-.743c.213-.213.425-.425.638-.744.212-.212.425-.53.53-.85.107-.32.213-.638.107-1.062 0-.638-.213-1.062-.638-1.488-.32-.32-.85-.53-1.488-.53-.425 0-.744.105-1.062.21-.32.107-.53.32-.744.64-.212.21-.32.53-.425.85-.106.318-.106.743-.106 1.06H13.39c-.11-.423-.11-.954.104-1.38zm4.462 8.076v1.912h-1.912v-1.912h1.912z" fill="#fff"/></svg><svg width="34" height="34" viewBox="0 0 34 34" id="help-disabled" x="102" y="136"><circle cx="17" cy="17" r="8.5" fill="#E6E6E6"/><path d="M13.494 13.28c.212-.53.425-.955.744-1.274.32-.32.744-.638 1.275-.85s1.062-.32 1.594-.32 1.062.107 1.487.213c.425.105.85.424 1.17.637.317.32.53.638.742 1.062.213.424.32.85.32 1.486 0 .32 0 .638-.107.957s-.214.53-.32.744c-.105.212-.318.425-.425.638-.212.212-.318.425-.53.53l-.532.532-.53.53-.32.64c-.105.21-.105.53-.105.742v.637H16.47v-.85c0-.426.107-.85.32-1.17.106-.318.32-.637.53-.85s.426-.53.745-.743c.213-.213.425-.425.638-.744.212-.212.425-.53.53-.85.107-.32.213-.638.107-1.062 0-.638-.213-1.062-.638-1.488-.32-.32-.85-.53-1.488-.53-.425 0-.744.105-1.062.21-.32.107-.53.32-.744.64-.212.21-.32.53-.425.85-.106.318-.106.743-.106 1.06H13.39c-.11-.423-.11-.954.104-1.38zm4.462 8.076v1.912h-1.912v-1.912h1.912z" fill="#fff"/></svg><svg width="34" height="34" viewBox="0 0 34 34" id="help_hover" x="136" y="136"><circle cx="17" cy="17" r="8.5" fill="#ED6D1C"/><path d="M13.494 13.28c.212-.53.425-.955.744-1.274.32-.32.744-.638 1.275-.85s1.062-.32 1.594-.32 1.062.107 1.487.213c.425.105.85.424 1.17.637.317.32.53.638.742 1.062.213.424.32.85.32 1.486 0 .32 0 .638-.107.957s-.214.53-.32.744c-.105.212-.318.425-.425.638-.212.212-.318.425-.53.53l-.532.532-.53.53-.32.64c-.105.21-.105.53-.105.742v.637H16.47v-.85c0-.426.107-.85.32-1.17.106-.318.32-.637.53-.85s.426-.53.745-.743c.213-.213.425-.425.638-.744.212-.212.425-.53.53-.85.107-.32.213-.638.107-1.062 0-.638-.213-1.062-.638-1.488-.32-.32-.85-.53-1.488-.53-.425 0-.744.105-1.062.21-.32.107-.53.32-.744.64-.212.21-.32.53-.425.85-.106.318-.106.743-.106 1.06H13.39c-.11-.423-.11-.954.104-1.38zm4.462 8.076v1.912h-1.912v-1.912h1.912z" fill="#fff"/></svg><svg width="34" height="34" viewBox="0 0 34 34" id="image" x="170"><path d="M13.494 13.28c.212-.53.425-.955.744-1.274.32-.32.744-.638 1.275-.85s1.062-.32 1.594-.32 1.062.107 1.487.213c.425.105.85.424 1.17.637.317.32.53.638.742 1.062.213.424.32.85.32 1.486 0 .32 0 .638-.107.957s-.214.53-.32.744c-.105.212-.318.425-.425.638-.212.212-.318.425-.53.53l-.532.532-.53.53-.32.64c-.105.21-.105.53-.105.742v.637H16.47v-.85c0-.426.107-.85.32-1.17.106-.318.32-.637.53-.85s.426-.53.745-.743c.213-.213.425-.425.638-.744.212-.212.425-.53.53-.85.107-.32.213-.638.107-1.062 0-.638-.213-1.062-.638-1.488-.32-.32-.85-.53-1.488-.53-.425 0-.744.105-1.062.21-.32.107-.53.32-.744.64-.212.21-.32.53-.425.85-.106.318-.106.743-.106 1.06H13.39c-.11-.423-.11-.954.104-1.38zm4.462 8.076v1.912h-1.912v-1.912h1.912z" fill="#fff"/><path fill="#666" d="M8.5 8.5h12.75v12.75H8.5z"/><path fill="#B1B1B1" d="M12.75 12.75H25.5V25.5H12.75z"/></svg><svg width="34" height="34" viewBox="0 0 34 34" id="itemizer"><path fill="#7AC943" d="M13.812 21.994h-2.656v-9.988h2.656V8.5H8.5v17h5.312z"/><path fill="#FF1D25" d="M20.188 21.994h2.656v-9.988h-2.656V8.5H25.5v17h-5.312z"/><path fill="#F0F0F0" d="M11.156 12.006h11.688v9.988H11.156z"/></svg><svg width="34" height="34" viewBox="0 0 34 34" id="itemizer-disabled" x="170" y="68"><path fill="#B3B3B3" d="M13.812 21.994h-2.656v-9.988h2.656V8.5H8.5v17h5.312zM20.188 21.994h2.656v-9.988h-2.656V8.5H25.5v17h-5.312z"/><path fill="#F0F0F0" d="M11.156 12.006h11.688v9.988H11.156z"/></svg><svg width="34" height="34" viewBox="0 0 34 34" id="itemizer_hover" x="170" y="102"><path fill="#ED6D1C" d="M13.812 21.994h-2.656v-9.988h2.656V8.5H8.5v17h5.312zM20.188 21.994h2.656v-9.988h-2.656V8.5H25.5v17h-5.312z"/><path fill="#F0F0F0" d="M11.156 12.006h11.688v9.988H11.156z"/></svg><svg width="34" height="34" viewBox="0 0 34 34" id="overlay-close" x="170" y="136"><path fill="#fff" d="M17.744 17L34 .744 33.256 0 17 16.256.744 0 0 .744 16.256 17 0 33.256.744 34 17 17.744 33.256 34l.744-.744z"/></svg><svg width="34" height="34" viewBox="0 0 34 34" id="overlay-down" y="170"><path fill="#fff" d="M17 24.438L.744 8.18 0 8.82l17 16.998 17-17-.744-.637z"/></svg><svg width="34" height="34" viewBox="0 0 34 34" id="overlay-up" x="34" y="170"><path fill="#fff" d="M17 9.562l16.256 16.256.744-.636-17-17-17 17 .744.636z"/></svg><svg width="34" height="34" viewBox="0 0 34 34" id="play" x="68" y="170"><path d="M8.5 17c0 4.675 3.825 8.5 8.5 8.5s8.5-3.825 8.5-8.5-3.825-8.5-8.5-8.5-8.5 3.825-8.5 8.5z" fill="#B1B1B1"/><path fill="#fff" stroke="#fff" d="M14.875 13.494L20.932 17l-6.057 3.506z"/></svg><svg width="34" height="34" viewBox="0 0 34 34" id="play-disabled" x="102" y="170"><path d="M8.5 17c0 4.675 3.825 8.5 8.5 8.5s8.5-3.825 8.5-8.5-3.825-8.5-8.5-8.5-8.5 3.825-8.5 8.5z" fill="#E6E6E6"/><path fill="#fff" stroke="#fff" d="M14.875 13.494L20.932 17l-6.057 3.506z"/></svg><svg width="34" height="34" viewBox="0 0 34 34" id="play_hover" x="136" y="170"><path d="M8.5 17c0 4.675 3.825 8.5 8.5 8.5s8.5-3.825 8.5-8.5-3.825-8.5-8.5-8.5-8.5 3.825-8.5 8.5z" fill="#ED6D1C"/><path fill="#fff" stroke="#fff" d="M14.875 13.494L20.932 17l-6.057 3.506z"/></svg><svg width="34" height="34" viewBox="0 0 34 34" id="preview" x="170" y="170"><path d="M8.5 17c0 4.675 3.825 8.5 8.5 8.5s8.5-3.825 8.5-8.5-3.825-8.5-8.5-8.5-8.5 3.825-8.5 8.5z" fill="#EB6D1C"/><path d="M10.944 17s2.762-3.294 6.056-3.294S23.057 17 23.057 17 20.294 20.294 17 20.294 10.944 17 10.944 17z" fill="none" stroke="#fff"/><circle cx="17" cy="17" r="3.294" fill="none" stroke="#fff"/><circle cx="17" cy="17" r="1.062" fill="none" stroke="#fff"/></svg><svg width="34" height="34" viewBox="0 0 34 34" id="preview-disabled" x="204"><path d="M8.5 17c0 4.675 3.825 8.5 8.5 8.5s8.5-3.825 8.5-8.5-3.825-8.5-8.5-8.5-8.5 3.825-8.5 8.5z" fill="#B3B3B3"/><path d="M10.944 17s2.762-3.294 6.056-3.294S23.057 17 23.057 17 20.294 20.294 17 20.294 10.944 17 10.944 17z" fill="none" stroke="#fff"/><circle cx="17" cy="17" r="3.294" fill="none" stroke="#fff"/><circle cx="17" cy="17" r="1.062" fill="none" stroke="#fff"/></svg><svg width="34" height="34" viewBox="0 0 34 34" id="pulldown" x="204" y="34"><path fill="#B1B1B1" d="M19.23 16.47L17 18.7l-2.23-2.23-1.49 1.486L17 21.78l3.72-3.824z"/></svg><svg width="34" height="34" viewBox="0 0 34 34" id="pulldown-disabled" x="204" y="68"><path fill="#E6E6E6" d="M19.23 16.47L17 18.7l-2.23-2.23-1.49 1.486L17 21.78l3.72-3.824z"/></svg><svg width="34" height="34" viewBox="0 0 34 34" id="radiobutton-checked" x="204" y="102"><path d="M21.25 17c0 2.338-1.912 4.25-4.25 4.25-2.337 0-4.25-1.912-4.25-4.25 0-2.337 1.913-4.25 4.25-4.25 2.338 0 4.25 1.913 4.25 4.25z" fill="#666"/></svg><svg width="34" height="34" viewBox="0 0 34 34" id="radiobutton-disabled-checked" x="204" y="136"><path d="M21.25 17c0 2.338-1.912 4.25-4.25 4.25-2.337 0-4.25-1.912-4.25-4.25 0-2.337 1.913-4.25 4.25-4.25 2.338 0 4.25 1.913 4.25 4.25z" fill="#E6E6E6"/></svg><svg width="34" height="34" viewBox="0 0 34 34" id="radiobutton-disabled-unchecked" x="204" y="170"><path d="M12.75 17c0 2.338 1.913 4.25 4.25 4.25 2.338 0 4.25-1.912 4.25-4.25 0-2.337-1.912-4.25-4.25-4.25-2.337 0-4.25 1.913-4.25 4.25z" fill="#fff" stroke="#E6E6E6"/></svg><svg width="34" height="34" viewBox="0 0 34 34" id="radiobutton-unchecked" y="204"><path d="M12.75 17c0 2.338 1.913 4.25 4.25 4.25 2.338 0 4.25-1.912 4.25-4.25 0-2.337-1.912-4.25-4.25-4.25-2.337 0-4.25 1.913-4.25 4.25z" fill="#fff" stroke="#666"/></svg><svg width="34" height="34" viewBox="0 0 34 34" id="remove" x="34" y="204"><circle cx="17" cy="17.213" r="8.5" fill="none"/><path fill="#4D4D4D" d="M20.72 19.443l-2.233-2.23 2.232-2.232-1.49-1.486-2.23 2.23-2.23-2.23-1.49 1.487 2.233 2.232-2.232 2.23 1.49 1.49L17 18.7l2.23 2.232z"/></svg><svg width="34" height="34" viewBox="0 0 34 34" id="remove-disabled" x="68" y="204"><circle cx="17" cy="17" r="8.5" fill="#B1B1B1"/><path fill="#fff" d="M20.72 19.23L18.486 17l2.232-2.23-1.49-1.49L17 15.514l-2.23-2.232-1.49 1.49L15.514 17l-2.232 2.23 1.49 1.49L17 18.486l2.23 2.232z"/></svg><svg width="34" height="34" viewBox="0 0 34 34" id="remove_hover" x="102" y="204"><circle cx="17" cy="17" r="8.5" fill="#FF1D25"/><path fill="#fff" d="M20.72 19.23L18.486 17l2.232-2.23-1.49-1.49L17 15.514l-2.23-2.232-1.49 1.49L15.514 17l-2.232 2.23 1.49 1.49L17 18.486l2.23 2.232z"/></svg><svg width="34" height="34" viewBox="0 0 34 34" id="tab-close" x="136" y="204"><path fill="#B3B3B3" d="M19.23 13.28L17 15.514l-2.23-2.232-1.49 1.49L15.514 17l-2.232 2.23 1.49 1.49L17 18.486l2.23 2.232 1.49-1.49L18.486 17l2.232-2.23z"/></svg><svg width="34" height="34" viewBox="0 0 34 34" id="tab-close_hover" x="170" y="204"><path fill="#ED6D1C" d="M19.23 13.28L17 15.514l-2.23-2.232-1.49 1.49L15.514 17l-2.232 2.23 1.49 1.49L17 18.486l2.23 2.232 1.49-1.49L18.486 17l2.232-2.23z"/></svg><svg width="34" height="34" viewBox="0 0 34 34" id="tab-new" x="204" y="204"><path fill="#B3B3B3" d="M21.25 15.938h-3.188V12.75h-2.124v3.188H12.75v2.124h3.188v3.188h2.124v-3.188h3.188z"/></svg><svg width="34" height="34" viewBox="0 0 34 34" id="tab-new_hover" x="238"><path fill="#ED6D1C" d="M15.938 12.75v3.188H12.75v2.124h3.188v3.188h2.124v-3.188h3.188v-2.124h-3.188V12.75z"/></svg><svg width="34" height="34" viewBox="0 0 34 34" id="uploads" x="238" y="34"><g><path d="M17 8.606c-4.675 0-8.5 3.825-8.5 8.5 0 4.037 2.763 7.33 6.48 8.287v-8.075h-3.93l5.95-5.95 5.95 5.95h-3.932v8.075c3.72-.956 6.48-4.25 6.48-8.287.002-4.675-3.823-8.5-8.498-8.5zM17 8.606c-4.675 0-8.5 3.825-8.5 8.5 0 4.037 2.763 7.33 6.48 8.287v-8.075h-3.93l5.95-5.95 5.95 5.95h-3.932v8.075c3.72-.956 6.48-4.25 6.48-8.287.002-4.675-3.823-8.5-8.498-8.5z" fill="#B1B1B1"/></g></svg><svg width="34" height="34" viewBox="0 0 34 34" id="uploads-disabled" x="238" y="68"><path d="M17 8.606c-4.675 0-8.5 3.825-8.5 8.5 0 4.037 2.763 7.33 6.48 8.287v-8.075h-3.93l5.95-5.95 5.95 5.95h-3.932v8.075c3.72-.956 6.48-4.25 6.48-8.287.002-4.675-3.823-8.5-8.498-8.5z" fill="#E6E6E6"/></svg><svg width="34" height="34" viewBox="0 0 34 34" id="uploads_hover" x="238" y="102"><path d="M17 8.606c-4.675 0-8.5 3.825-8.5 8.5 0 4.037 2.763 7.33 6.48 8.287v-8.075h-3.93l5.95-5.95 5.95 5.95h-3.932v8.075c3.72-.956 6.48-4.25 6.48-8.287.002-4.675-3.823-8.5-8.498-8.5z" fill="#ED6D1C"/></svg></svg>