<?xml version="1.0" encoding="utf-8"?>
<!-- Generator: Adobe Illustrator 18.1.1, SVG Export Plug-In . SVG Version: 6.00 Build 0)  -->
<svg version="1.1" id="Layer_1" xmlns="http://www.w3.org/2000/svg" xmlns:xlink="http://www.w3.org/1999/xlink" x="0px" y="0px"
	 viewBox="8.5 8.5 17 17" enable-background="new 8.5 8.5 17 17" xml:space="preserve">
<path fill="#B3B3B3" d="M8.5,17c0,4.67,3.82,8.5,8.5,8.5s8.5-3.83,8.5-8.5S21.67,8.5,17,8.5S8.5,12.32,8.5,17z"/>
<g>
	<path fill="#FFFFFF" d="M15.25,12.41c-1.08,0.93-1.16,4.69-0.23,5.77c0.93,1.08,2.58,1.16,3.66,0.23c1.08-0.93,1.16-4.69,0.23-5.77
		C17.98,11.56,16.31,11.43,15.25,12.41z M18.16,17.81c-0.75,0.68-1.91,0.62-2.55-0.15c-0.68-0.75-0.62-4.02,0.15-4.65
		c0.75-0.68,1.91-0.62,2.55,0.15C18.99,13.9,18.93,17.17,18.16,17.81z"/>
	<rect x="13.37" y="15.54" fill="#FFFFFF" width="7.15" height="5.9"/>
</g>
</svg>
