<?xml version="1.0" encoding="utf-8"?>
<!-- Generator: Adobe Illustrator 18.1.1, SVG Export Plug-In . SVG Version: 6.00 Build 0)  -->
<svg version="1.1" id="Layer_1" xmlns="http://www.w3.org/2000/svg" xmlns:xlink="http://www.w3.org/1999/xlink" x="0px" y="0px"
	 viewBox="13.4 11.3 7.1 11.4" enable-background="new 13.4 11.3 7.1 11.4" xml:space="preserve">
<g>
	<path fill="#FFFFFF" d="M20.4,17.4l-0.9,0.9c-0.2,0.2-0.5,0.2-0.7,0l-5.2-5.2c-0.2-0.2-0.2-0.5,0-0.7l0.9-0.8
		c0.2-0.2,0.5-0.2,0.7,0l5.2,5.2C20.6,16.8,20.6,17.2,20.4,17.4z"/>
	<path fill="#FFFFFF" d="M19.5,15.7l0.9,0.9c0.2,0.2,0.2,0.5,0,0.7l-5.2,5.2c-0.2,0.2-0.5,0.2-0.7,0l-0.8-0.9
		c-0.2-0.2-0.2-0.5,0-0.7l5.2-5.2C19,15.5,19.3,15.5,19.5,15.7z"/>
</g>
</svg>
