<?xml version="1.0" encoding="utf-8"?>
<!-- Generator: Adobe Illustrator 18.1.1, SVG Export Plug-In . SVG Version: 6.00 Build 0)  -->
<svg version="1.1" id="Layer_1" xmlns="http://www.w3.org/2000/svg" xmlns:xlink="http://www.w3.org/1999/xlink" x="0px" y="0px"
	 viewBox="13.4 11.3 7.1 11.4" enable-background="new 13.4 11.3 7.1 11.4" xml:space="preserve">
<g>
	<path fill="#FFFFFF" d="M13.6,16.6l0.8-0.9c0.2-0.2,0.5-0.2,0.7,0l5.2,5.2c0.2,0.2,0.2,0.5,0,0.7l-0.9,0.9c-0.2,0.2-0.5,0.2-0.7,0
		l-5.2-5.2C13.4,17.2,13.4,16.8,13.6,16.6z"/>
	<path fill="#FFFFFF" d="M14.4,18.3l-0.8-0.9c-0.2-0.2-0.2-0.5,0-0.7l5.2-5.2c0.2-0.2,0.5-0.2,0.7,0l0.9,0.8c0.2,0.2,0.2,0.5,0,0.7
		l-5.2,5.2C15,18.5,14.7,18.5,14.4,18.3z"/>
</g>
</svg>
