<?xml version="1.0" encoding="utf-8"?>
<!-- Generator: Adobe Illustrator 18.1.1, SVG Export Plug-In . SVG Version: 6.00 Build 0)  -->
<svg version="1.1" id="Layer_1" xmlns="http://www.w3.org/2000/svg" xmlns:xlink="http://www.w3.org/1999/xlink" x="0px" y="0px"
	 viewBox="0 0 34 34" enable-background="new 0 0 34 34" xml:space="preserve">
<path fill="#FFFFFF" d="M17.6476,14.1785c-2.6798,0-4.8532,2.1726-4.8532,4.8532c0,2.6806,2.1734,4.8532,4.8532,4.8532
	c2.6797,0,4.8532-2.1726,4.8532-4.8532C22.5007,16.3511,20.3273,14.1785,17.6476,14.1785"/>
<path fill="#FFFFFF" d="M22.9941,10.4828V6.4385H12.301v4.0443H1.713v16.9861h31.8691V10.4828H22.9941z M17.6476,26.3114
	c-4.0144,0-7.2798-3.2654-7.2798-7.2797c0-4.0144,3.2654-7.2798,7.2798-7.2798c4.0143,0,7.2798,3.2654,7.2798,7.2798
	C24.9273,23.0461,21.6619,26.3114,17.6476,26.3114"/>
</svg>
