<?xml version="1.0" encoding="utf-8"?>
<!-- Generator: Adobe Illustrator 18.1.1, SVG Export Plug-In . SVG Version: 6.00 Build 0)  -->
<svg version="1.1" baseProfile="tiny" id="Layer_1" xmlns="http://www.w3.org/2000/svg" xmlns:xlink="http://www.w3.org/1999/xlink"
	 x="0px" y="0px" viewBox="0 0 19.9564 16" xml:space="preserve">
<g>
	<path d="M9.91,8.2812C9.7936,8.4751,9.6676,8.6592,9.5322,8.8338l0.9602,1.1636l-1.0189,0.9213L8.4072,9.8325
		c-0.3778,0.2521-0.785,0.4364-1.2121,0.5528l0.0966,1.5031l-1.3665,0.1454l-0.2235-1.4934
		c-0.4366-0.029-0.8731-0.1162-1.2992-0.2811l-0.8049,1.2799l-1.1932-0.6884L3.1032,9.503
		C2.7538,9.2217,2.4536,8.8823,2.2206,8.5139L0.8049,9.0763L0.2424,7.8156l1.358-0.6594C1.4934,6.7198,1.4451,6.2738,1.464,5.8278
		L0,5.4495l0.2812-1.3478l1.4934,0.2618c0.0777-0.2133,0.1742-0.417,0.2907-0.611C2.1818,3.5586,2.3078,3.3744,2.4432,3.2
		L1.4735,2.0363L2.5019,1.115l1.0568,1.0862c0.3778-0.2521,0.785-0.4267,1.2121-0.5528L4.6742,0.1453l1.3665-0.1454L6.2642,1.503
		c0.4366,0.0193,0.8826,0.1065,1.3087,0.2811l0.8049-1.2799L9.571,1.1926L8.8627,2.5308c0.3589,0.2811,0.66,0.6206,0.892,0.989
		l1.4062-0.5623l0.5625,1.2605l-1.3475,0.6594c0.1061,0.4363,0.1553,0.8823,0.1354,1.3381l1.464,0.3686L11.6847,7.932
		l-1.4839-0.2521C10.1231,7.8834,10.0265,8.0872,9.91,8.2812z"/>
	<circle fill="#FFFFFF" cx="5.9847" cy="6.0183" r="2.2402"/>
	<path d="M18.6468,12.4508l1.3097,0.8339l-0.6884,1.1927l-1.3674-0.7176c-0.339,0.3201-0.7472,0.5625-1.2121,0.6884l-0.0682,1.5516
		h-1.3674l-0.0672-1.5516c-0.4659-0.1259-0.8731-0.3684-1.2121-0.6884l-1.3674,0.7176l-0.6884-1.1927l1.3087-0.8339
		c-0.0578-0.223-0.0871-0.4461-0.0871-0.6886c0-0.2424,0.0294-0.4654,0.0871-0.6884l-1.3087-0.8339l0.6884-1.1927l1.3674,0.7176
		c0.339-0.32,0.7462-0.5624,1.2121-0.6884l0.0672-1.5515h1.3674l0.0682,1.5515c0.465,0.1261,0.8731,0.3685,1.2121,0.6884
		l1.3674-0.7176l0.6884,1.1927l-1.3097,0.8339c0.0587,0.223,0.0881,0.446,0.0881,0.6884
		C18.7348,12.0046,18.7055,12.2278,18.6468,12.4508z"/>
	<circle fill="#FFFFFF" cx="15.937" cy="11.7643" r="1.307"/>
</g>
</svg>
