<?xml version="1.0" encoding="utf-8"?>
<!-- Generator: Adobe Illustrator 18.1.1, SVG Export Plug-In . SVG Version: 6.00 Build 0)  -->
<svg version="1.1" id="Layer_1" xmlns="http://www.w3.org/2000/svg" xmlns:xlink="http://www.w3.org/1999/xlink" x="0px" y="0px"
	 viewBox="10.3 11.3 13.5 11.4" enable-background="new 10.3 11.3 13.5 11.4" xml:space="preserve">
<g>
	<g>
		<path fill="#818181" d="M16.8,16.6l0.9-0.9c0.2-0.2,0.5-0.2,0.7,0l5.2,5.2c0.2,0.2,0.2,0.5,0,0.7l-0.9,0.9c-0.2,0.2-0.5,0.2-0.7,0
			l-5.2-5.2C16.6,17.2,16.6,16.8,16.8,16.6z"/>
		<path fill="#818181" d="M17.6,18.3l-0.9-0.9c-0.2-0.2-0.2-0.5,0-0.7l5.2-5.2c0.2-0.2,0.5-0.2,0.7,0l0.9,0.8c0.2,0.2,0.2,0.5,0,0.7
			l-5.2,5.2C18.2,18.5,17.8,18.5,17.6,18.3z"/>
	</g>
	<g>
		<path fill="#818181" d="M10.4,16.6l0.8-0.9c0.2-0.2,0.5-0.2,0.7,0l5.2,5.2c0.2,0.2,0.2,0.5,0,0.7l-0.9,0.9c-0.2,0.2-0.5,0.2-0.7,0
			l-5.2-5.2C10.2,17.2,10.2,16.8,10.4,16.6z"/>
		<path fill="#818181" d="M11.3,18.3l-0.8-0.9c-0.2-0.2-0.2-0.5,0-0.7l5.2-5.2c0.2-0.2,0.5-0.2,0.7,0l0.9,0.8c0.2,0.2,0.2,0.5,0,0.7
			L12,18.3C11.8,18.5,11.5,18.5,11.3,18.3z"/>
	</g>
</g>
</svg>
