<?xml version="1.0" encoding="utf-8"?>
<!-- Generator: Adobe Illustrator 18.1.1, SVG Export Plug-In . SVG Version: 6.00 Build 0)  -->
<svg version="1.1" id="Layer_1" xmlns="http://www.w3.org/2000/svg" xmlns:xlink="http://www.w3.org/1999/xlink" x="0px" y="0px"
	 viewBox="10.3 11.3 13.5 11.4" enable-background="new 10.3 11.3 13.5 11.4" xml:space="preserve">
<g>
	<g>
		<path fill="#818181" d="M17.2,17.4l-0.9,0.9c-0.2,0.2-0.5,0.2-0.7,0l-5.2-5.2c-0.2-0.2-0.2-0.5,0-0.7l0.9-0.8
			c0.2-0.2,0.5-0.2,0.7,0l5.2,5.2C17.4,16.8,17.4,17.2,17.2,17.4z"/>
		<path fill="#818181" d="M16.4,15.7l0.9,0.9c0.2,0.2,0.2,0.5,0,0.7L12,22.5c-0.2,0.2-0.5,0.2-0.7,0l-0.8-0.9
			c-0.2-0.2-0.2-0.5,0-0.7l5.2-5.2C15.8,15.5,16.1,15.5,16.4,15.7z"/>
	</g>
	<g>
		<path fill="#818181" d="M23.6,17.4l-0.9,0.9c-0.2,0.2-0.5,0.2-0.7,0l-5.2-5.2c-0.2-0.2-0.2-0.5,0-0.7l0.9-0.8
			c0.2-0.2,0.5-0.2,0.7,0l5.2,5.2C23.8,16.8,23.8,17.2,23.6,17.4z"/>
		<path fill="#818181" d="M22.7,15.7l0.9,0.9c0.2,0.2,0.2,0.5,0,0.7l-5.2,5.2c-0.2,0.2-0.5,0.2-0.7,0l-0.9-0.9
			c-0.2-0.2-0.2-0.5,0-0.7l5.2-5.2C22.2,15.5,22.5,15.5,22.7,15.7z"/>
	</g>
</g>
</svg>
