<?xml version="1.0" encoding="utf-8"?>
<!-- Generator: Adobe Illustrator 18.1.1, SVG Export Plug-In . SVG Version: 6.00 Build 0)  -->
<svg version="1.1" baseProfile="tiny" id="Layer_1" xmlns="http://www.w3.org/2000/svg" xmlns:xlink="http://www.w3.org/1999/xlink"
	 x="0px" y="0px" viewBox="0 0 16 16" xml:space="preserve">
<g>
	<path fill="#B3B3B3" d="M16,8c0-0.2,0-0.4,0-0.7C16,7.6,16,7.8,16,8z"/>
	<path fill="#B3B3B3" d="M16,8c0,0.2,0,0.4,0,0.7C16,8.4,16,8.2,16,8z"/>
	<path fill="#B3B3B3" d="M8,0C3.6,0,0,3.6,0,8v0c0,4.4,3.6,8,8,8c4.2,0,7.6-3.2,8-7.3c0-0.2,0-0.4,0-0.7v0c0-0.2,0-0.4,0-0.7
		C15.6,3.2,12.2,0,8,0z M6.7,11.5c-0.7-1-1.9-1.8-3-2.6l0.3-0.5c0.7,0.2,1.3,0.5,2,0.8c0.3,0.2,0.7,0.4,1,0.6c0,0,0,0,0-0.1
		c0.1-0.3,0.3-0.7,0.5-1C7.7,8.2,8,7.5,8.4,6.9c0.8-1.2,1.7-2.3,2.9-3.2l0.4,0.4c-1,0.9-1.8,2.1-2.4,3.3C9,8.1,8.8,8.7,8.5,9.3
		c-0.1,0.3-0.2,0.6-0.3,1c-0.1,0.3-0.2,0.7-0.3,0.9l-0.3,1.4L6.7,11.5z"/>
	<path fill="#FFFFFF" d="M7.9,11.2c0.1-0.3,0.2-0.6,0.3-0.9c0.1-0.3,0.2-0.6,0.3-1C8.8,8.7,9,8.1,9.3,7.5c0.6-1.2,1.4-2.3,2.4-3.3
		l-0.4-0.4c-1.1,0.9-2.1,2-2.9,3.2C8,7.5,7.7,8.2,7.4,8.8C7.2,9.1,7,9.4,6.9,9.8c0,0,0,0,0,0.1c-0.3-0.2-0.7-0.4-1-0.6
		C5.2,9,4.6,8.7,3.9,8.4L3.7,9c1.1,0.7,2.3,1.6,3,2.6l0.9,1.1L7.9,11.2z"/>
</g>
</svg>
