<?xml version="1.0" encoding="utf-8"?>
<!-- Generator: Adobe Illustrator 18.1.1, SVG Export Plug-In . SVG Version: 6.00 Build 0)  -->
<svg version="1.1" baseProfile="tiny" id="Layer_1" xmlns="http://www.w3.org/2000/svg" xmlns:xlink="http://www.w3.org/1999/xlink"
	 x="0px" y="0px" viewBox="0 0 16 16" xml:space="preserve">
<g>
	<path fill="#FF1D25" d="M16,8c0,0.2,0,0.4,0,0.7C16,8.4,16,8.2,16,8z"/>
	<path fill="#FF1D25" d="M16,8c0-0.2,0-0.4,0-0.7C16,7.6,16,7.8,16,8z"/>
	<path fill="#FF1D25" d="M8,0C3.6,0,0,3.6,0,8v0c0,4.4,3.6,8,8,8c4.2,0,7.6-3.2,8-7.3c0-0.2,0-0.4,0-0.7v0c0-0.2,0-0.4,0-0.7
		C15.6,3.2,12.2,0,8,0z M5.9,6.3c0.3-0.1,0.7-0.1,1.1-0.1c0.3,0,0.7,0,1,0.1c0.3,0.1,0.7,0.2,1,0.3l0.5,0.2C9.7,7,9.9,7.1,10,7.2
		c0.3,0.2,0.5,0.5,0.7,0.8c0.2,0.3,0.3,0.6,0.4,0.8c0.1,0.3,0.1,0.5,0.2,0.8c0,0.5,0,0.9,0,1.2c0,0.3-0.1,0.4-0.1,0.4h0
		c0,0,0-0.2-0.1-0.4c0-0.3-0.2-0.6-0.3-1c-0.1-0.2-0.2-0.4-0.3-0.6c-0.1-0.2-0.3-0.4-0.4-0.6C9.8,8.3,9.6,8.2,9.4,8.1L9,7.9L8.7,7.8
		c-0.3,0-0.5-0.1-0.8-0.1c-0.3,0-0.5,0-0.8,0c-0.3,0-0.5,0.1-0.7,0.1l0.6,2.1L3.4,8l1.9-3.7L5.9,6.3z"/>
	<path fill="#FFFFFF" d="M6.4,7.9c0.2-0.1,0.5-0.1,0.7-0.1c0.2,0,0.5-0.1,0.8,0c0.3,0,0.5,0,0.8,0.1L9,7.9l0.3,0.2
		c0.2,0.1,0.4,0.3,0.6,0.5c0.2,0.2,0.3,0.4,0.4,0.6c0.1,0.2,0.2,0.4,0.3,0.6c0.1,0.4,0.3,0.8,0.3,1c0.1,0.3,0.1,0.4,0.1,0.4h0
		c0,0,0-0.2,0.1-0.4c0-0.3,0-0.7,0-1.2c0-0.2-0.1-0.5-0.2-0.8C11,8.6,10.9,8.2,10.7,8c-0.2-0.3-0.4-0.5-0.7-0.8
		C9.9,7.1,9.7,7,9.6,6.9L9.1,6.6c-0.3-0.1-0.7-0.2-1-0.3c-0.3-0.1-0.7-0.1-1-0.1c-0.4,0-0.8,0-1.1,0.1L6.4,7.9z"/>
	<polygon fill="#FFFFFF" points="7.1,9.9 6.4,7.9 5.9,6.3 5.3,4.3 3.4,8 	"/>
</g>
</svg>
