<?xml version="1.0" encoding="utf-8"?>
<!-- Generator: Adobe Illustrator 18.1.1, SVG Export Plug-In . SVG Version: 6.00 Build 0)  -->
<svg version="1.1" baseProfile="tiny" id="Layer_1" xmlns="http://www.w3.org/2000/svg" xmlns:xlink="http://www.w3.org/1999/xlink"
	 x="0px" y="0px" viewBox="8 8 18 18" xml:space="preserve">
<circle fill="#B3B3B3" cx="17" cy="17" r="8.5"/>
<g>
	<path fill="#FFFFFF" d="M13.5,13.3c0.2-0.5,0.4-1,0.7-1.3c0.3-0.3,0.7-0.6,1.3-0.9c0.5-0.2,1.1-0.3,1.6-0.3s1.1,0.1,1.5,0.2
		s0.9,0.4,1.2,0.6c0.3,0.3,0.5,0.6,0.7,1.1c0.2,0.4,0.3,0.9,0.3,1.5c0,0.3,0,0.6-0.1,1s-0.2,0.5-0.3,0.7c-0.1,0.2-0.3,0.4-0.4,0.6
		c-0.2,0.2-0.3,0.4-0.5,0.5c-0.2,0.2-0.3,0.3-0.5,0.5c-0.2,0.2-0.3,0.3-0.5,0.5c-0.1,0.2-0.2,0.4-0.3,0.6C18,19,18,19.3,18,19.5v0.6
		h-1.5v-0.9c0-0.4,0.1-0.9,0.3-1.2c0.1-0.3,0.3-0.6,0.5-0.9s0.4-0.5,0.7-0.7c0.2-0.2,0.4-0.4,0.6-0.7c0.2-0.2,0.4-0.5,0.5-0.9
		s0.2-0.6,0.1-1.1c0-0.6-0.2-1.1-0.6-1.5c-0.3-0.3-0.9-0.5-1.5-0.5c-0.4,0-0.7,0.1-1.1,0.2c-0.3,0.1-0.5,0.3-0.7,0.6
		c-0.2,0.2-0.3,0.5-0.4,0.9s-0.1,0.7-0.1,1.1h-1.5C13.3,14.2,13.3,13.7,13.5,13.3z M18,21.4v1.9H16v-1.9H18z"/>
</g>
</svg>
