<?xml version="1.0" encoding="iso-8859-1"?>
<!-- Generator: Adobe Illustrator 15.0.2, SVG Export Plug-In . SVG Version: 6.00 Build 0)  -->
<!DOCTYPE svg PUBLIC "-//W3C//DTD SVG 1.1//EN" "http://www.w3.org/Graphics/SVG/1.1/DTD/svg11.dtd">
<svg version="1.1" id="Layer_1" xmlns="http://www.w3.org/2000/svg" xmlns:xlink="http://www.w3.org/1999/xlink" x="0px" y="0px"
	 width="34px" height="34px" viewBox="0 0 34 34" style="enable-background:new 0 0 34 34;" xml:space="preserve">
<circle style="fill:#ED6D1C;" cx="17" cy="17" r="8.5"/>
<g>
	<path style="fill:#FFFFFF;" d="M13.494,13.281c0.212-0.531,0.425-0.956,0.744-1.275c0.319-0.319,0.744-0.638,1.275-0.85
		s1.062-0.319,1.594-0.319s1.062,0.106,1.487,0.212c0.425,0.106,0.85,0.425,1.169,0.638c0.318,0.319,0.531,0.638,0.743,1.062
		c0.213,0.425,0.319,0.85,0.319,1.487c0,0.319,0,0.638-0.106,0.957s-0.213,0.531-0.318,0.744c-0.106,0.212-0.319,0.425-0.426,0.638
		c-0.212,0.212-0.318,0.425-0.531,0.531c-0.212,0.212-0.318,0.318-0.531,0.531c-0.212,0.212-0.318,0.318-0.531,0.531
		c-0.105,0.212-0.212,0.425-0.318,0.638c-0.106,0.212-0.106,0.531-0.106,0.743v0.638h-1.487v-0.85c0-0.426,0.106-0.851,0.319-1.169
		c0.106-0.319,0.319-0.638,0.531-0.85s0.425-0.531,0.744-0.744c0.213-0.213,0.425-0.425,0.638-0.744
		c0.212-0.212,0.425-0.531,0.531-0.85c0.106-0.319,0.212-0.638,0.106-1.062c0-0.638-0.213-1.062-0.638-1.488
		c-0.319-0.319-0.851-0.531-1.488-0.531c-0.425,0-0.744,0.106-1.062,0.212c-0.319,0.106-0.531,0.319-0.744,0.638
		c-0.212,0.212-0.319,0.531-0.425,0.85c-0.106,0.319-0.106,0.744-0.106,1.062h-1.487C13.281,14.237,13.281,13.706,13.494,13.281z
		 M17.956,21.356v1.912h-1.912v-1.912H17.956z"/>
</g>
</svg>
