<?xml version="1.0" encoding="utf-8"?>
<!-- Generator: Adobe Illustrator 18.1.1, SVG Export Plug-In . SVG Version: 6.00 Build 0)  -->
<svg version="1.1" baseProfile="tiny" id="Layer_1" xmlns="http://www.w3.org/2000/svg" xmlns:xlink="http://www.w3.org/1999/xlink"
	 x="0px" y="0px" viewBox="0 0 12.9084 15.9999" xml:space="preserve">
<g>
	<circle fill="#ED6D1C" cx="5.5837" cy="3.3795" r="3.3795"/>
	<path fill="#ED6D1C" d="M7.4648,11.6752c-0.2002,0-0.3945-0.0703-0.5488-0.2002L4.0722,9.0717
		C3.7138,8.768,3.6689,8.2318,3.9716,7.8734c0.3027-0.3604,0.8389-0.4023,1.1982-0.1006l2.1367,1.8057l4.0586-5.7256
		c0.2715-0.3848,0.7998-0.4736,1.1846-0.2021c0.3828,0.2715,0.4736,0.8018,0.2021,1.1846l-4.5938,6.4814
		c-0.1377,0.1943-0.3506,0.3223-0.5859,0.3516C7.5361,11.6732,7.5,11.6752,7.4648,11.6752z"/>
	<g>
		<path fill="#ED6D1C" d="M8.1582,13.7318c-0.1377,0.1943-0.3506,0.3223-0.5859,0.3516C7.5361,14.0883,7.5,14.0902,7.4648,14.0902
			c-0.2002,0-0.3945-0.0703-0.5488-0.2002L2.1894,9.8949C0.1376,12.0972,0,15.9999,0,15.9999h11.168
			c0,0-0.0742-2.6216-1.2285-4.7817L8.1582,13.7318z"/>
	</g>
</g>
</svg>
