<?xml version="1.0" encoding="utf-8"?>
<!-- Generator: Adobe Illustrator 23.0.6, SVG Export Plug-In . SVG Version: 6.00 Build 0)  -->
<svg version="1.1" id="Layer_1" xmlns="http://www.w3.org/2000/svg" xmlns:xlink="http://www.w3.org/1999/xlink" x="0px" y="0px"
	 viewBox="0 0 34 34" style="enable-background:new 0 0 34 34;" xml:space="preserve">
<style type="text/css">
	.st0{fill:#FF1D25;}
	.st1{fill:#FFFFFF;}
</style>
<circle class="st0" cx="17" cy="17" r="17"/>
<g>
	<g>
		<g>
			<path class="st1" d="M23,8h-2.6V7.4c0-1.4-1.1-2.6-2.6-2.6h-1.7c-1.4,0-2.6,1.1-2.6,2.6V8H11c-1.6,0-3,1.3-3,3v0.8h17.9V11
				C25.9,9.3,24.6,8,23,8z M19,8H15V7.4c0-0.6,0.5-1.1,1.1-1.1h1.7c0.6,0,1.1,0.5,1.1,1.1L19,8L19,8z"/>
		</g>
	</g>
	<g>
		<g>
			<path class="st1" d="M9.1,13.2v14.5c0,0.8,0.7,1.5,1.5,1.5h13c0.8,0,1.5-0.7,1.5-1.5V13.2H9.1z"/>
		</g>
	</g>
</g>
</svg>
