<?xml version="1.0" encoding="utf-8"?>
<!-- Generator: Adobe Illustrator 18.1.1, SVG Export Plug-In . SVG Version: 6.00 Build 0)  -->
<svg version="1.1" baseProfile="tiny" id="Layer_1" xmlns="http://www.w3.org/2000/svg" xmlns:xlink="http://www.w3.org/1999/xlink"
	 x="0px" y="0px" viewBox="0 0 17.8 22.7" xml:space="preserve">
<path fill="#4D4D4D" d="M11,0.3C8.3,1.2,5.3,8.1,6.2,10.8c0.9,2.7,3.9,4.1,6.6,3.2c2.7-0.9,5.7-7.8,4.8-10.5
	C16.7,0.8,13.7-0.7,11,0.3z M12.3,12.5c-1.9,0.7-4-0.3-4.6-2.2c-0.7-1.9,1.9-7.9,3.8-8.5c1.9-0.7,4,0.3,4.6,2.2
	C16.8,5.9,14.2,11.9,12.3,12.5z"/>
<rect x="1.7" y="8.6" transform="matrix(0.9253 0.3792 -0.3792 0.9253 6.1674 -2.277)" fill="#4D4D4D" width="14.3" height="11.8"/>
</svg>
