<?xml version="1.0" encoding="utf-8"?>
<!-- Generator: Adobe Illustrator 18.1.1, SVG Export Plug-In . SVG Version: 6.00 Build 0)  -->
<svg version="1.1" id="Layer_1" xmlns="http://www.w3.org/2000/svg" xmlns:xlink="http://www.w3.org/1999/xlink" x="0px" y="0px"
	 viewBox="0 0 34 34" enable-background="new 0 0 34 34" xml:space="preserve">
<g id="icon_x5F_status:for-publication_x5F_16px">
	<g>
		<path fill="#EB6D1C" d="M27.3,14l2.3-2.3l-3.2-3L24.3,11c-1.7-1.3-3.6-1.9-5.9-2.1c1.7-0.6,3-2.3,3-4.2c0.2-2.8-2-4.7-4.3-4.7
			s-4.5,1.9-4.5,4.5c0,1.9,1.3,3.6,3,4.2c-2.1,0.2-4.2,1.1-5.9,2.3L7.3,8.7l-3,3.2L6.7,14c-1.5,2.1-2.3,4.7-2.3,7.2
			c0,7,5.7,12.8,12.8,12.8S30,28.3,30,21.2C29.6,18.7,28.8,16.1,27.3,14z M14.1,4.5c0-1.7,1.3-3,3-3s3,1.3,3,3s-1.3,3-3,3
			S14.1,6.2,14.1,4.5z"/>
		<polygon fill="#FFFFFF" points="22.6,23 15.4,23 15.4,13 18.6,13 18.6,19.8 22.6,19.8 		"/>
	</g>
</g>
</svg>
