<?xml version="1.0" encoding="utf-8"?>
<!-- Generator: Adobe Illustrator 18.1.1, SVG Export Plug-In . SVG Version: 6.00 Build 0)  -->
<svg version="1.1" id="Layer_1" xmlns="http://www.w3.org/2000/svg" xmlns:xlink="http://www.w3.org/1999/xlink" x="0px" y="0px"
	 viewBox="0 0 34 34" enable-background="new 0 0 34 34" xml:space="preserve">
<g id="icon_x5F_status:for-republication_x5F_16px">
	<g>
		<polygon fill="#FFFFFF" points="22.6,23 15.4,23 15.4,13 18.6,13 18.6,19.8 22.6,19.8 		"/>
	</g>
</g>
<path fill="#FBB03B" d="M28,15.6h-1.5V17h-4.4c-1.3,0-2.4,0.5-3.3,1.2c-0.9,0.7-1.6,1.6-2.4,2.6l0,0c-0.8,1.1-1.7,2.1-2.8,2.9
	c-1,0.8-2.2,1.3-3.9,1.3H7.5h2.4c1.6,0,3-0.6,4-1.4c1-0.8,1.8-1.8,2.6-2.8l0,0c0.8-1,1.6-2,2.5-2.6l9.5-1.1L19,15.9
	c-0.9-0.7-1.7-1.7-2.5-2.7l0,0c-0.8-1-1.6-2-2.6-2.8c-1-0.8-2.4-1.4-4-1.4H7.5h2.4c1.6,0,2.8,0.5,3.9,1.3c1,0.8,1.9,1.9,2.8,2.9l0,0
	c0.8,1,1.5,1.9,2.4,2.6c0.9,0.7,2,1.2,3.3,1.2H28V15.6h-1.5H28v-1.5h-5.8c-0.6,0-0.9-0.1-1.5-0.6c-0.5-0.4-1.2-1.2-1.9-2.2l0,0
	c-0.8-1-1.9-2.3-3.3-3.4c-1.4-1.1-3.3-1.9-5.6-1.9H6H4.5v5.8h5.3c1,0,1.5,0.3,2.2,0.8c0.7,0.5,1.3,1.3,2.1,2.3l0,0
	c0.8,1,1.7,2.2,2.9,3.1l0.9-1.1l-0.9-1.2c-1.2,1-2.2,2.1-3,3.1l0,0c-0.8,1-1.5,1.8-2.1,2.3c-0.7,0.5-1.3,0.8-2.2,0.8H6H4.5v5.8h5.3
	c2.3,0,4.2-0.8,5.6-1.9c1.4-1.1,2.4-2.4,3.3-3.4v0c0.8-1,1.4-1.7,1.9-2.2c0.5-0.4,0.9-0.5,1.5-0.6h7.3v-5.8H28V15.6z"/>
</svg>
