<?xml version="1.0" encoding="utf-8"?>
<!-- Generator: Adobe Illustrator 18.1.1, SVG Export Plug-In . SVG Version: 6.00 Build 0)  -->
<svg version="1.1" baseProfile="tiny" id="Layer_1" xmlns="http://www.w3.org/2000/svg" xmlns:xlink="http://www.w3.org/1999/xlink"
	 x="0px" y="0px" viewBox="0 0 16.3 14.5" xml:space="preserve">
<g>
	<path fill="#4D4D4D" d="M5.8,2.3C5.9,1,7,0,8.3,0c1.3,0,2.4,1.1,2.3,2.5c0,1.3-1.1,2.4-2.5,2.3C6.8,4.8,5.8,3.7,5.8,2.3z"/>
	<circle fill="#4D4D4D" cx="13.9" cy="12" r="2.4"/>
	<path fill="#4D4D4D" d="M0,12c0-1.3,1.1-2.4,2.5-2.3c1.3,0,2.4,1.1,2.3,2.5c0,1.3-1.1,2.4-2.5,2.3S0,13.3,0,12z"/>
	<line fill="none" stroke="#4D4D4D" x1="13.9" y1="12" x2="8.2" y2="2.4"/>
	<line fill="none" stroke="#4D4D4D" x1="8.2" y1="2.4" x2="2.4" y2="12"/>
</g>
</svg>
