<?xml version="1.0" encoding="utf-8"?>
<!-- Generator: Adobe Illustrator 18.1.1, SVG Export Plug-In . SVG Version: 6.00 Build 0)  -->
<svg version="1.1" baseProfile="tiny" id="Layer_1" xmlns="http://www.w3.org/2000/svg" xmlns:xlink="http://www.w3.org/1999/xlink"
	 x="0px" y="0px" viewBox="0 0 22.9702 21.2026" xml:space="preserve">
<g>
	<path fill="#4D4D4D" d="M22.9702,21.2026H0L11.4849,0L22.9702,21.2026z M10.1738,18.0337c0.3315,0.3457,0.7686,0.5186,1.311,0.5186
		c0.542,0,0.9795-0.1729,1.3115-0.5186s0.498-0.7578,0.498-1.2344s-0.166-0.8926-0.498-1.248s-0.7695-0.5332-1.3115-0.5332
		c-0.5425,0-0.9795,0.1777-1.311,0.5332c-0.332,0.3555-0.498,0.7715-0.498,1.248S9.8418,17.688,10.1738,18.0337z M12.3687,13.686
		l0.8838-6.6045c-0.0381-0.0093-0.1338-0.042-0.2881-0.0981s-0.2754-0.0981-0.3643-0.126
		c-0.0889-0.0283-0.2031-0.0635-0.3438-0.1055c-0.1396-0.042-0.2734-0.0723-0.3999-0.0908c-0.126-0.019-0.251-0.0283-0.3716-0.0283
		c-0.1216,0-0.2456,0.0093-0.3716,0.0283C10.9868,6.6797,10.8535,6.71,10.7134,6.752s-0.2549,0.0771-0.3433,0.1055
		c-0.0894,0.0278-0.2104,0.0698-0.3647,0.126S9.7549,7.0723,9.7178,7.0815l0.8833,6.6045H12.3687z"/>
</g>
</svg>
