<?xml version="1.0" encoding="utf-8"?>
<!-- Generator: Adobe Illustrator 21.0.2, SVG Export Plug-In . SVG Version: 6.00 Build 0)  -->
<svg version="1.1" xmlns="http://www.w3.org/2000/svg" xmlns:xlink="http://www.w3.org/1999/xlink" x="0px" y="0px"
	 viewBox="0 0 400 400" style="enable-background:new 0 0 400 400;" xml:space="preserve">
<style type="text/css">
	.st0{fill:#FFFFFF;}
	.st1{fill:#FF6D00;}
</style>
<g id="mono">
	<g id="NPO_x5F_RGB_copy">
		<g>
			<path class="st0" d="M86.2,195.4c2.9,2.9,2.5,6.2,0.2,8.4c-2.2,2.2-5.5,2.6-8.4-0.3L61.6,187c-3.1-3.1-6.1-3-9.6,0.5l-6.6,6.6
				c-3.5,3.5-3.6,6.5-0.5,9.6l16.5,16.5c2.9,2.9,2.5,6.1,0.3,8.4c-2.2,2.2-5.5,2.7-8.4-0.2l-16.6-16.7c-7.8-7.8-7.9-17.1,0.8-25.9
				l6.2-6.2c8.7-8.7,18.1-8.6,25.9-0.8L86.2,195.4z M156.7,107.2c7.8,7.8,7.9,17.1-0.8,25.9l-6.2,6.2c-8.7,8.7-18.1,8.6-25.9,0.8
				l-7.8-7.8c-7.8-7.8-7.9-17.1,0.8-25.9l6.2-6.2c8.7-8.7,18.1-8.6,25.9-0.8L156.7,107.2z M148.4,115.2l-7.5-7.6
				c-3.1-3.1-6.1-3-9.6,0.5l-6.6,6.6c-3.5,3.5-3.6,6.5-0.5,9.6l7.5,7.6c3.1,3.1,6.1,3,9.6-0.5l6.6-6.6
				C151.5,121.3,151.6,118.3,148.4,115.2z M117.4,146.5c7.8,7.8,7.9,17.1-0.8,25.9L110,179c-2.3,2.3-4.2,3.5-5.8,3.8l5.8,5.8
				c2.9,2.9,2.5,6.1,0.3,8.4c-2.2,2.2-5.5,2.7-8.4-0.2l-25.2-25.1c-7.8-7.8-7.9-17.1,0.8-25.9l6.2-6.2c8.7-8.7,18.1-8.6,25.8-0.8
				L117.4,146.5z M109.2,154.5l-7.5-7.6c-3.1-3.1-6.1-3-9.6,0.5l-6.6,6.6c-3.5,3.5-3.6,6.5-0.5,9.6l7.5,7.6c3.1,3.1,6.1,3,9.6-0.5
				l6.6-6.6C112.2,160.6,112.3,157.6,109.2,154.5z"/>
		</g>
	</g>
	<path class="st0" d="M381.4,183.6L278.1,80.3c-10.4-10.4-22.3-10.4-32.7,0l-46.2,46.2L153,80.3c-5.2-5.2-10.8-7.8-16.4-7.8
		c-5.6,0-11.2,2.6-16.4,7.8L16.9,183.6C6.5,194,6.5,206,16.9,216.4l103.3,103.3c5.2,5.2,10.8,7.8,16.4,7.8c5.6,0,11.2-2.6,16.4-7.8
		l46.2-46.2l46.2,46.2c10.4,10.4,22.3,10.4,32.7,0l103.3-103.3C391.8,206,391.8,194,381.4,183.6z M148,314.7
		c-3.8,3.8-7.7,5.8-11.4,5.8c-3.8,0-7.6-1.9-11.4-5.8L21.9,211.4c-3.8-3.8-5.8-7.7-5.8-11.4c0-3.8,1.9-7.6,5.8-11.4L125.2,85.3
		c3.8-3.8,7.7-5.8,11.4-5.8c3.8,0,7.6,1.9,11.4,5.8l46.2,46.2L142,183.6c-10.4,10.4-10.4,22.3,0,32.7l52.2,52.2L148,314.7z
		 M350,209.2c-10.8,10.8-86,87.2-86,87.2V101.2l86.2,86.6C350.2,187.7,360.9,198.4,350,209.2z"/>
</g>
<g id="color">
	<g id="NPO_x5F_RGB">
		<g>
			<path class="st0" d="M109.2,154.5c3.1,3.1,3,6.1-0.5,9.6l-6.6,6.6c-3.5,3.5-6.4,3.6-9.6,0.5l-7.5-7.6c-3.1-3.1-3-6.1,0.5-9.6
				l6.6-6.6c3.5-3.5,6.5-3.6,9.6-0.5L109.2,154.5z M140.9,107.7c-3.1-3.1-6.1-3-9.6,0.5l-6.6,6.6c-3.5,3.5-3.6,6.5-0.5,9.6l7.5,7.6
				c3.1,3.1,6.1,3,9.6-0.5l6.6-6.6c3.5-3.5,3.6-6.5,0.5-9.6L140.9,107.7z M256.3,216.4L153,319.7c-10.4,10.4-22.3,10.4-32.7,0
				L16.9,216.4C6.5,206,6.5,194,16.9,183.6L120.2,80.3c10.4-10.4,22.3-10.4,32.7,0l103.3,103.3C266.7,194,266.7,206,256.3,216.4z
				 M86.2,195.4l-16.7-16.6c-7.8-7.8-17.1-7.9-25.9,0.8l-6.2,6.2c-8.7,8.7-8.6,18.1-0.8,25.9l16.6,16.7c2.9,2.9,6.2,2.5,8.4,0.2
				c2.2-2.2,2.6-5.5-0.3-8.4l-16.5-16.5c-3.1-3.1-3-6.1,0.5-9.6l6.6-6.6c3.5-3.5,6.5-3.6,9.6-0.5l16.5,16.5c2.9,2.9,6.1,2.5,8.4,0.3
				C88.7,201.5,89.1,198.3,86.2,195.4z M117.4,146.5l-7.9-7.8c-7.8-7.8-17.1-7.9-25.8,0.8l-6.2,6.2c-8.7,8.7-8.6,18.1-0.8,25.9
				l25.2,25.1c2.9,2.9,6.2,2.5,8.4,0.2c2.2-2.2,2.6-5.4-0.3-8.4l-5.8-5.8c1.6-0.3,3.5-1.5,5.8-3.8l6.6-6.6
				C125.3,163.7,125.2,154.3,117.4,146.5z M156.7,107.2l-7.8-7.8c-7.8-7.8-17.1-7.9-25.9,0.8l-6.2,6.2c-8.7,8.7-8.6,18.1-0.8,25.9
				l7.8,7.8c7.8,7.8,17.1,7.9,25.9-0.8l6.2-6.2C164.6,124.4,164.5,115,156.7,107.2z"/>
			<path class="st1" d="M86.2,195.4c2.9,2.9,2.5,6.2,0.2,8.4c-2.2,2.2-5.5,2.6-8.4-0.3L61.6,187c-3.1-3.1-6.1-3-9.6,0.5l-6.6,6.6
				c-3.5,3.5-3.6,6.5-0.5,9.6l16.5,16.5c2.9,2.9,2.5,6.1,0.3,8.4c-2.2,2.2-5.5,2.7-8.4-0.2l-16.6-16.7c-7.8-7.8-7.9-17.1,0.8-25.9
				l6.2-6.2c8.7-8.7,18.1-8.6,25.9-0.8L86.2,195.4z M156.7,107.2c7.8,7.8,7.9,17.1-0.8,25.9l-6.2,6.2c-8.7,8.7-18.1,8.6-25.9,0.8
				l-7.8-7.8c-7.8-7.8-7.9-17.1,0.8-25.9l6.2-6.2c8.7-8.7,18.1-8.6,25.9-0.8L156.7,107.2z M148.4,115.2l-7.5-7.6
				c-3.1-3.1-6.1-3-9.6,0.5l-6.6,6.6c-3.5,3.5-3.6,6.5-0.5,9.6l7.5,7.6c3.1,3.1,6.1,3,9.6-0.5l6.6-6.6
				C151.5,121.3,151.6,118.3,148.4,115.2z M117.4,146.5c7.8,7.8,7.9,17.1-0.8,25.9L110,179c-2.3,2.3-4.2,3.5-5.8,3.8l5.8,5.8
				c2.9,2.9,2.5,6.1,0.3,8.4c-2.2,2.2-5.5,2.7-8.4-0.2l-25.2-25.1c-7.8-7.8-7.9-17.1,0.8-25.9l6.2-6.2c8.7-8.7,18.1-8.6,25.8-0.8
				L117.4,146.5z M109.2,154.5l-7.5-7.6c-3.1-3.1-6.1-3-9.6,0.5l-6.6,6.6c-3.5,3.5-3.6,6.5-0.5,9.6l7.5,7.6c3.1,3.1,6.1,3,9.6-0.5
				l6.6-6.6C112.2,160.6,112.3,157.6,109.2,154.5z"/>
		</g>
	</g>
	<g>
		<path class="st1" d="M178.3,187.3h-4v12.6c1.2,0.2,2.7,0.3,4.1,0.3c6.4,0,8.9-2,8.9-6.6C187.3,189.2,184.8,187.3,178.3,187.3z"/>
		<path class="st1" d="M213.8,186.8c-6.4,0-9.7,5.1-9.7,12.9c0,7.8,3.4,12.9,9.7,12.9c6.3,0,9.7-5.1,9.7-12.9
			C223.5,191.9,220.2,186.8,213.8,186.8z"/>
		<path class="st1" d="M381.4,183.6L278.1,80.3c-10.4-10.4-22.3-10.4-32.7,0L142,183.6c-10.4,10.4-10.4,22.3,0,32.7l103.3,103.3
			c10.4,10.4,22.3,10.4,32.7,0l103.3-103.3C391.8,206,391.8,194,381.4,183.6z M178.4,205.5c-1.6,0-3.2-0.1-4.1-0.3v10.1
			c0,1.6-0.7,2.2-2.2,2.2h-1.8c-1.5,0-2.2-0.6-2.2-2.2v-31.1c0-1.5,0.7-2.2,2.2-2.2h7.9c9.6,0,15.6,3.4,15.6,11.7
			C193.7,202.1,187.6,205.5,178.4,205.5z M213.8,218c-9.9,0-16.1-6.3-16.1-18.3c0-12,6.2-18.3,16.1-18.3c9.9,0,16.1,6.2,16.1,18.3
			C229.9,211.8,223.7,218,213.8,218z M269.3,215.3c0,1.6-0.6,2.2-2.2,2.2h-1.7c-1.5,0-2.2-0.6-2.2-2.2v-14.4c0-3.6,0.2-7.4,0.5-9.9
			l-9.4,13.8c-0.6,0.9-1.2,1.1-1.8,1.1c-0.6,0-1.2-0.2-1.8-1.1l-9.4-13.8c0.3,2.4,0.5,6.3,0.5,9.9v14.4c0,1.6-0.7,2.2-2.2,2.2H238
			c-1.5,0-2.2-0.6-2.2-2.2v-31.1c0-1.5,0.7-2.2,2.2-2.2h2.4c1.4,0,2.2,0.5,3.2,1.9l9.1,13.7l9.1-13.7c0.9-1.4,1.8-1.9,3.2-1.9h2.2
			c1.5,0,2.2,0.6,2.2,2.2V215.3z M286.2,218c-4.7,0-7.9-0.8-10-1.8c-0.8-0.4-1.3-1.1-1.3-1.9c0-0.4,0.1-0.8,0.3-1.2l0.5-0.9
			c0.5-1,1.1-1.5,1.8-1.5c0.3,0,0.8,0.1,1.2,0.3c1.8,0.8,4,1.4,7.2,1.4c5.4,0,7.4-2,7.4-4.9c0-2.3-1.2-3.7-5.3-4.7l-4.6-1.2
			c-5.4-1.4-9-4.4-9-9.9c0-5.7,4-10.5,13.6-10.5c3.9,0,6.9,0.8,8.8,1.8c0.8,0.4,1.3,1.1,1.3,1.9c0,0.4-0.1,0.8-0.3,1.1l-0.5,1
			c-0.5,1-1.1,1.5-1.8,1.5c-0.3,0-0.8-0.1-1.2-0.3c-1.5-0.7-3.7-1.4-6.8-1.4c-4.8,0-6.7,1.9-6.7,4.5c0,2.2,1.3,3.6,5.3,4.6l4.6,1.2
			c5.4,1.4,9,4.3,9,10.1C299.7,213.1,296,218,286.2,218z M352.8,203.3c-4.7,4.7-37.6,38.1-37.6,38.1v-85.3l37.6,37.8
			C352.9,194,357.5,198.6,352.8,203.3z"/>
		<path class="st0" d="M315.2,156.1v85.3c0,0,32.8-33.4,37.6-38.1s0.1-9.4,0.1-9.4L315.2,156.1z"/>
		<path class="st0" d="M178.1,182h-7.9c-1.5,0-2.2,0.6-2.2,2.2v31.1c0,1.6,0.7,2.2,2.2,2.2h1.8c1.5,0,2.2-0.6,2.2-2.2v-10.1
			c0.9,0.2,2.5,0.3,4.1,0.3c9.2,0,15.3-3.4,15.3-11.9C193.7,185.4,187.7,182,178.1,182z M178.4,200.2c-1.4,0-3-0.1-4.1-0.3v-12.6h4
			c6.6,0,9.1,1.9,9.1,6.4C187.3,198.2,184.8,200.2,178.4,200.2z"/>
		<path class="st0" d="M213.8,181.5c-9.9,0-16.1,6.2-16.1,18.3c0,12,6.2,18.3,16.1,18.3c9.9,0,16.1-6.3,16.1-18.3
			C229.9,187.7,223.7,181.5,213.8,181.5z M213.8,212.7c-6.4,0-9.7-5.1-9.7-12.9c0-7.8,3.4-12.9,9.7-12.9c6.3,0,9.7,5.1,9.7,12.9
			C223.5,207.5,220.2,212.7,213.8,212.7z"/>
		<path class="st0" d="M267.1,182h-2.2c-1.4,0-2.3,0.5-3.2,1.9l-9.1,13.7l-9.1-13.7c-0.9-1.4-1.8-1.9-3.2-1.9H238
			c-1.5,0-2.2,0.6-2.2,2.2v31.1c0,1.6,0.7,2.2,2.2,2.2h1.7c1.5,0,2.2-0.6,2.2-2.2v-14.4c0-3.6-0.2-7.4-0.5-9.9l9.4,13.8
			c0.6,0.9,1.2,1.1,1.8,1.1c0.6,0,1.2-0.2,1.8-1.1l9.4-13.8c-0.3,2.4-0.5,6.3-0.5,9.9v14.4c0,1.6,0.7,2.2,2.2,2.2h1.7
			c1.5,0,2.2-0.6,2.2-2.2v-31.1C269.3,182.6,268.7,182,267.1,182z"/>
		<path class="st0" d="M290.8,197.1l-4.6-1.2c-4-1-5.3-2.4-5.3-4.6c0-2.6,1.8-4.5,6.7-4.5c3.1,0,5.2,0.7,6.8,1.4
			c0.5,0.2,0.9,0.3,1.2,0.3c0.8,0,1.3-0.5,1.8-1.5l0.5-1c0.2-0.4,0.3-0.8,0.3-1.1c0-0.8-0.5-1.5-1.3-1.9c-2-0.9-4.9-1.8-8.8-1.8
			c-9.6,0-13.6,4.8-13.6,10.5c0,5.5,3.6,8.5,9,9.9l4.6,1.2c4.1,1,5.3,2.4,5.3,4.7c0,3-2,4.9-7.4,4.9c-3.2,0-5.4-0.6-7.2-1.4
			c-0.5-0.2-0.9-0.3-1.2-0.3c-0.8,0-1.3,0.5-1.8,1.5l-0.5,0.9c-0.2,0.4-0.3,0.8-0.3,1.2c0,0.8,0.5,1.5,1.3,1.9c2.1,1,5.4,1.8,10,1.8
			c9.8,0,13.6-5,13.6-10.8C299.7,201.4,296.1,198.5,290.8,197.1z"/>
	</g>
</g>
</svg>
